<?xml version="1.0" standalone="no"?>
<!DOCTYPE svg PUBLIC "-//W3C//DTD SVG 20010904//EN"
 "http://www.w3.org/TR/2001/REC-SVG-20010904/DTD/svg10.dtd">
<svg version="1.0" xmlns="http://www.w3.org/2000/svg"
 width="500.000000pt" height="500.000000pt" viewBox="0 0 500.000000 500.000000"
 preserveAspectRatio="xMidYMid meet">
<metadata>
Copyright © 2025 BIT_on_Tech™ • Simplified Tech of Tomorrow • All rights reserved • bitveil.dk
</metadata>
<rect width="500" height="500" fill="#101020"/>
<g transform="translate(0.000000,500.000000) scale(0.100000,-0.100000)"
fill="#00dcff" stroke="none">
<path d="M2270 4810 c-152 -16 -437 -74 -495 -99 -11 -5 -67 -26 -125 -47
-404 -146 -819 -472 -1091 -859 -184 -262 -324 -621 -368 -945 -21 -149 -34
-331 -28 -396 3 -38 11 -127 16 -199 6 -71 15 -146 20 -165 5 -19 23 -96 41
-170 32 -134 60 -228 85 -285 153 -351 283 -544 530 -790 115 -115 141 -138
240 -213 33 -25 77 -58 97 -74 20 -15 39 -28 41 -28 3 0 34 -18 68 -40 78 -48
282 -149 364 -180 33 -12 69 -26 80 -30 11 -5 54 -18 95 -30 41 -11 89 -25
105 -30 17 -5 55 -12 85 -16 30 -4 62 -10 70 -14 8 -4 100 -16 203 -26 191
-17 321 -13 507 17 30 5 86 14 125 20 38 6 76 14 85 19 8 4 35 11 60 15 24 4
51 11 60 15 8 4 42 16 75 25 33 10 74 24 90 30 17 7 50 20 75 30 355 142 724
431 973 763 26 34 47 67 47 72 0 4 3 10 8 12 9 4 52 65 52 74 0 4 6 15 14 23
41 48 165 300 206 421 12 36 26 74 31 85 5 11 13 38 18 60 6 22 17 67 26 100
47 177 64 327 64 575 0 195 -6 269 -33 410 -30 156 -37 186 -45 205 -5 11 -19
54 -31 95 -13 41 -27 79 -31 85 -5 5 -9 15 -9 23 0 28 -103 237 -175 357 -175
289 -421 546 -695 727 -41 28 -84 54 -95 59 -11 5 -33 17 -50 28 -71 43 -191
100 -285 136 -25 9 -52 20 -60 25 -8 4 -51 17 -95 30 -44 12 -91 26 -105 31
-28 10 -198 44 -275 55 -27 4 -57 9 -65 11 -35 8 -431 11 -500 3z m515 -233
c283 -42 437 -91 682 -214 274 -138 480 -301 679 -539 50 -61 137 -187 160
-234 4 -7 24 -41 44 -75 46 -75 120 -246 150 -345 12 -41 26 -84 31 -95 10
-25 26 -104 44 -218 7 -49 16 -96 19 -104 10 -26 7 -465 -3 -513 -6 -25 -15
-72 -20 -105 -36 -226 -135 -489 -266 -705 -107 -177 -160 -245 -320 -409
-207 -213 -450 -378 -720 -491 -47 -19 -151 -51 -295 -90 -36 -10 -125 -25
-245 -40 -93 -12 -382 -12 -470 0 -93 13 -216 35 -290 53 -64 15 -213 65 -230
76 -5 4 -32 16 -60 26 -64 23 -254 124 -286 151 -8 8 -19 14 -23 14 -18 0
-252 189 -337 272 -163 160 -232 246 -342 424 -79 128 -185 356 -202 435 -4
19 -11 39 -15 44 -13 16 -53 219 -70 350 -12 100 -13 450 0 530 23 148 31 192
39 225 6 19 17 62 26 95 47 172 174 447 267 576 165 231 346 413 548 551 66
45 214 133 260 155 230 109 367 152 615 193 33 5 85 14 115 19 77 13 395 5
515 -12z"/>
<path d="M1191 3489 c-121 -43 -215 -147 -245 -274 -15 -62 -16 -141 -13 -725
2 -476 7 -670 16 -708 27 -116 112 -227 210 -274 46 -23 47 -23 634 -26 l588
-3 29 30 c52 52 35 147 -29 169 -17 6 -225 9 -525 8 -274 -1 -499 1 -502 5 -2
4 20 26 49 50 28 24 77 68 109 97 31 29 104 95 162 145 58 51 155 138 216 195
l111 104 43 -39 c154 -139 341 -295 364 -304 36 -14 85 -11 112 8 22 15 72 57
311 262 36 31 90 76 119 101 30 25 77 65 105 90 29 25 80 70 116 100 35 30 89
78 119 105 31 28 78 68 105 90 27 22 75 63 106 90 31 28 82 72 115 100 32 27
82 72 111 98 29 27 57 46 62 42 7 -4 11 -64 11 -163 0 -132 3 -162 17 -182 24
-35 33 -40 81 -40 56 0 77 12 91 51 14 41 15 431 0 519 -22 137 -109 238 -243
283 -45 16 -157 17 -1275 16 -1181 0 -1228 -1 -1280 -20z m2499 -204 c17 -9
30 -23 30 -31 0 -16 -64 -78 -154 -148 -28 -22 -69 -56 -91 -75 -23 -20 -63
-54 -90 -76 -27 -22 -69 -58 -94 -81 -39 -34 -127 -110 -369 -319 -20 -16 -56
-48 -82 -70 -25 -22 -70 -60 -99 -85 -93 -78 -206 -174 -211 -180 -28 -30 -74
-59 -85 -53 -12 7 -41 32 -195 168 -31 28 -69 61 -86 75 -16 14 -74 63 -129
110 -55 47 -111 94 -124 105 -14 11 -50 43 -81 70 -31 28 -70 61 -86 75 -16
13 -63 54 -105 90 -42 36 -98 83 -125 105 -27 22 -71 60 -99 85 -60 53 -91 79
-163 138 -28 24 -52 50 -52 58 0 8 19 24 43 34 41 19 78 20 1230 20 1046 0
1192 -2 1217 -15z m-2448 -352 c50 -43 117 -100 147 -128 31 -27 83 -72 115
-100 33 -27 85 -72 115 -100 69 -61 167 -146 201 -174 l25 -21 -41 -37 c-22
-21 -78 -72 -124 -113 -47 -41 -119 -106 -160 -145 -42 -38 -116 -106 -165
-150 -49 -44 -110 -100 -137 -124 -27 -24 -50 -42 -53 -40 -2 3 -9 34 -14 69
-11 66 -16 1140 -6 1140 3 0 47 -35 97 -77z"/>
<path d="M3860 2387 c-20 -10 -178 -188 -393 -441 -72 -84 -194 -228 -244
-288 -26 -31 -53 -57 -59 -57 -6 -1 -70 59 -142 133 -170 176 -206 194 -263
137 -23 -24 -29 -38 -29 -74 0 -57 6 -65 215 -274 139 -138 179 -173 208 -178
46 -9 83 11 132 71 22 26 48 58 60 70 11 12 31 35 44 50 14 16 52 61 86 99 34
39 73 84 87 100 51 61 121 141 152 175 17 19 67 78 111 130 44 52 85 100 91
105 6 6 30 35 53 66 29 40 41 65 41 90 -1 74 -81 121 -150 86z"/>
</g>
</svg>
